# xmcd CD database file
#
# Track frame offsets:
#	150
#	28972
#	52394
#	72860
#	99445
#	126994
#	151353
#	175885
#
# Disc length: 2631 seconds
#
# Revision: 0
# Processed by: cddbd v1.5.1PL0 Copyright (c) Steve Scherf et al.
# Submitted via: CDex 1.51
#
DISCID=720a4508
DTITLE=Adam Forkelid - Cirkel
DYEAR=2005
DGENRE=Jazz
TTITLE0=Bartok's playground
TTITLE1=Cirkel
TTITLE2=Figur
TTITLE3=Cinema
TTITLE4=637 mil
TTITLE5=Ackord
TTITLE6=Sen
TTITLE7=12
EXTD=YEAR: 2005
EXTT0=
EXTT1=
EXTT2=
EXTT3=
EXTT4=
EXTT5=
EXTT6=
EXTT7=
PLAYORDER=
